<svg width="1200" height="800" viewBox="0 0 1200 800" fill="none" xmlns="http://www.w3.org/2000/svg">
  <rect width="1200" height="800" fill="#F8FAFC"/>
  <rect x="70" y="90" width="1060" height="620" rx="28" fill="white" stroke="#E2E8F0"/>
  <circle cx="240" cy="250" r="80" fill="#E0F2FE"/>
  <circle cx="420" cy="220" r="24" fill="#0EA5E9"/>
  <circle cx="510" cy="330" r="20" fill="#0284C7"/>
  <circle cx="700" cy="240" r="28" fill="#0369A1"/>
  <circle cx="860" cy="320" r="22" fill="#38BDF8"/>
  <path d="M240 250C320 220 340 200 420 220C500 240 520 360 700 240C780 190 820 250 860 320" stroke="#0EA5E9" stroke-width="6" stroke-linecap="round" stroke-dasharray="12 10"/>
  <rect x="170" y="470" width="840" height="140" rx="16" fill="#F1F5F9"/>
  <rect x="200" y="505" width="320" height="20" rx="10" fill="#CBD5E1"/>
  <rect x="200" y="540" width="220" height="14" rx="7" fill="#E2E8F0"/>
  <rect x="560" y="505" width="220" height="20" rx="10" fill="#CBD5E1"/>
  <rect x="560" y="540" width="180" height="14" rx="7" fill="#E2E8F0"/>
  <rect x="810" y="495" width="170" height="44" rx="10" fill="#0369A1"/>
</svg>
